Coordinates
version=1
nRows=29
nColumns=22
inDegrees=yes

Units are S.I. units (second, meters, Newtons, ...)
If the header above contains a line with 'inDegrees', this indicates whether rotational values are in degrees (yes) or radians (no).

endheader
time	pelvis_tilt	pelvis_list	pelvis_rotation	pelvis_tx	pelvis_ty	pelvis_tz	hip_flexion_r	hip_adduction_r	hip_rotation_r	knee_angle_r	ankle_angle_r	subtalar_angle_r	hip_flexion_l	hip_adduction_l	hip_rotation_l	knee_angle_l	ankle_angle_l	subtalar_angle_l	lumbar_extension	lumbar_bending	lumbar_rotation
      0.01000000	     -4.22698712	     -5.21564454	      4.11842759	     -0.03305912	      0.97279138	      0.89367364	     14.07589480	      3.68162217	     -9.19536550	    -28.85950339	     13.19574539	      3.50636039	      5.34046336	     -2.73492463	      9.11460931	    -10.19119683	     10.90014944	     -5.69904734	      2.42154628	      4.81206253	     -6.73579522
      0.02000000	     -4.19743883	     -5.22527267	      4.16970774	     -0.03289698	      0.97279533	      0.89348332	     14.15635013	      3.65529196	     -9.21871326	    -28.90825066	     13.36832897	      3.46931060	      5.26121867	     -2.74427720	      9.13184923	    -10.11438391	     10.91671305	     -5.70250393	      2.38789783	      4.83053121	     -6.79825058
      0.03000000	     -4.13592591	     -5.20472479	      4.26210646	     -0.03269521	      0.97284795	      0.89321879	     14.20236311	      3.58186348	     -9.28557893	    -28.91282325	     13.56109317	      3.38859344	      5.13514675	     -2.71874379	      9.21063398	    -10.01712266	     10.89301156	     -5.70326308	      2.31741325	      4.81895176	     -6.90703660
      0.04000000	     -4.09310146	     -5.21328063	      4.35243795	     -0.03243551	      0.97288761	      0.89299445	     14.24731741	      3.54405496	     -9.34049889	    -28.82761436	     13.76174619	      3.31357653	      5.03169395	     -2.72650359	      9.27081197	     -9.92503871	     10.87984503	     -5.70022405	      2.27577697	      4.83720949	     -6.99134424
      0.05000000	     -4.02182843	     -5.21962089	      4.48195777	     -0.03207790	      0.97298504	      0.89270627	     14.22845197	      3.49319047	     -9.45126627	    -28.64751818	     13.88362417	      3.18622111	      4.88797171	     -2.72983679	      9.37676579	     -9.81910029	     10.86371137	     -5.69742918	      2.21655754	      4.86123697	     -7.11486310
      0.06000000	     -3.97009177	     -5.24300568	      4.60213287	     -0.03170884	      0.97306668	      0.89249875	     14.21237220	      3.47340948	     -9.53206409	    -28.39746574	     13.95432302	      3.05990067	      4.77860803	     -2.75381058	      9.47190998	     -9.73607124	     10.85044262	     -5.69287835	      2.18069773	      4.90036804	     -7.21124792
      0.07000000	     -3.93033712	     -5.27005203	      4.72252185	     -0.03130645	      0.97314359	      0.89233600	     14.18771099	      3.46438034	     -9.60190505	    -28.09411272	     13.92819670	      2.93736514	      4.69065340	     -2.78208114	      9.56852261	     -9.67109752	     10.83557212	     -5.68505235	      2.16344092	      4.94206904	     -7.29625029
      0.08000000	     -3.90470262	     -5.29625108	      4.83216143	     -0.03089230	      0.97321021	      0.89223540	     14.16369114	      3.46465869	     -9.65208968	    -27.76739604	     13.79205602	      2.82785014	      4.62724021	     -2.81067264	      9.65687887	     -9.62586418	     10.82038657	     -5.67384985	      2.16175502	      4.98379813	     -7.35669879
      0.09000000	     -3.88420713	     -5.32524110	      4.93266766	     -0.03046098	      0.97327264	      0.89220864	     14.12900596	      3.47989148	     -9.69112735	    -27.43467092	     13.56065920	      2.69958859	      4.57627386	     -2.84613691	      9.73818969	     -9.59613225	     10.81459537	     -5.65684801	      2.16605296	      5.02674083	     -7.39863789
      0.10000000	     -3.86385880	     -5.34889838	      5.01671553	     -0.03002762	      0.97333135	      0.89224585	     14.07690726	      3.50672940	     -9.69336892	    -27.11301290	     13.26443673	      2.51307972	      4.53578963	     -2.87827218	      9.80987875	     -9.59106880	     10.82903358	     -5.62584666	      2.16746094	      5.06778535	     -7.43222526
      0.11000000	     -3.86545993	     -5.36910913	      5.07407682	     -0.02960204	      0.97336934	      0.89237903	     14.04261345	      3.53663752	     -9.69405826	    -26.83595992	     12.91500007	      2.39129914	      4.51680905	     -2.91243268	      9.85478379	     -9.58438137	     10.81557236	     -5.58576132	      2.18772142	      5.10213680	     -7.41612558
      0.12000000	     -3.86367534	     -5.38586313	      5.11874619	     -0.02917155	      0.97341224	      0.89258223	     13.98182102	      3.57463099	     -9.68805423	    -26.58199926	     12.57393510	      2.26934829	      4.50153916	     -2.94707626	      9.88913087	     -9.59620638	     10.81801967	     -5.53437701	      2.19983986	      5.13440874	     -7.39721446
      0.13000000	     -3.85632745	     -5.40690155	      5.15912907	     -0.02873297	      0.97346301	      0.89285393	     13.88397354	      3.62808956	     -9.68714964	    -26.33657470	     12.27426185	      2.13924938	      4.48686770	     -2.99167173	      9.91439161	     -9.61826159	     10.83119309	     -5.46444481	      2.20335387	      5.17136273	     -7.37609992
      0.14000000	     -3.83640838	     -5.43769054	      5.20525610	     -0.02827303	      0.97353510	      0.89318387	     13.73087442	      3.70141793	     -9.70356993	    -26.07308673	     12.03903371	      1.99291814	      4.46621397	     -3.05215151	      9.93645312	     -9.65022611	     10.85921379	     -5.36165354	      2.19262959	      5.21812962	     -7.35956975
      0.15000000	     -3.82128351	     -5.47128671	      5.25130870	     -0.02778704	      0.97361368	      0.89357504	     13.54288721	      3.78165958	     -9.74836211	    -25.78466295	     11.86935092	      1.90230083	      4.45756038	     -3.11841633	      9.95183471	     -9.69317295	     10.88344908	     -5.26125101	      2.19098481	      5.26538453	     -7.34805222
      0.16000000	     -3.79805097	     -5.52240222	      5.31084470	     -0.02726900	      0.97371315	      0.89402078	     13.30077655	      3.88685687	     -9.81914987	    -25.44742237	     11.76326783	      1.82894298	      4.45035290	     -3.20712837	      9.97252514	     -9.74890215	     10.91917802	     -5.14591517	      2.18478987	      5.32705758	     -7.34809585
      0.17000000	     -3.77001674	     -5.58764131	      5.38056944	     -0.02671537	      0.97383542	      0.89451730	     13.01487367	      4.01313950	     -9.91494586	    -25.06109640	     11.69761554	      1.76752908	      4.44477809	     -3.31372631	     10.00077331	     -9.81234969	     10.96084525	     -5.01532050	      2.17939155	      5.40002064	     -7.35385012
      0.18000000	     -3.74417791	     -5.66899344	      5.45755978	     -0.02614985	      0.97396904	      0.89506308	     12.70348758	      4.16117994	    -10.02761248	    -24.63178914	     11.65675842	      1.72060295	      4.45071866	     -3.43905289	     10.03494150	     -9.88603166	     11.00510521	     -4.88577611	      2.17918277	      5.48691188	     -7.37065181
      0.19000000	     -3.71767149	     -5.75947785	      5.54064469	     -0.02555926	      0.97411809	      0.89565768	     12.37067460	      4.32577447	    -10.14673984	    -24.16896066	     11.62971494	      1.67790059	      4.45995659	     -3.57561224	     10.08208634	     -9.96602798	     11.05058965	     -4.75096587	      2.18292355	      5.57898865	     -7.39084013
      0.20000000	     -3.69627970	     -5.86205954	      5.62281262	     -0.02495965	      0.97427160	      0.89629419	     12.03383477	      4.50737589	    -10.26877001	    -23.68445137	     11.60551500	      1.64194288	      4.47614476	     -3.72611773	     10.13709462	    -10.04748688	     11.09889417	     -4.62272888	      2.19356670	      5.68295894	     -7.41402942
      0.21000000	     -3.68172777	     -5.96724798	      5.70033432	     -0.02434887	      0.97442224	      0.89697878	     11.70322702	      4.69716583	    -10.37820793	    -23.19462128	     11.58274760	      1.61164980	      4.49896471	     -3.88086581	     10.19674777	    -10.12982076	     11.14249120	     -4.50650976	      2.21415530	      5.78589281	     -7.43613708
      0.22000000	     -3.67270481	     -6.07509620	      5.77020264	     -0.02372829	      0.97456751	      0.89770063	     11.38276663	      4.89376582	    -10.47536533	    -22.70735726	     11.55423648	      1.58477008	      4.52304176	     -4.03939722	     10.25813448	    -10.20704545	     11.18640795	     -4.40129139	      2.24082790	      5.88972768	     -7.45217716
      0.23000000	     -3.67124470	     -6.18079361	      5.83096895	     -0.02311417	      0.97469973	      0.89845889	     11.08051293	      5.09176562	    -10.55265309	    -22.23158318	     11.52284367	      1.56032045	      4.55089432	     -4.19685662	     10.31504358	    -10.27841999	     11.22723348	     -4.31070758	      2.27219850	      5.98986400	     -7.46225242
      0.24000000	     -3.67341010	     -6.28037938	      5.88186990	     -0.02249040	      0.97481869	      0.89925184	     10.79506313	      5.28627502	    -10.61102746	    -21.77687575	     11.48904137	      1.53468745	      4.57637426	     -4.34967081	     10.36532417	    -10.34410908	     11.26638972	     -4.23020475	      2.30686364	      6.08124740	     -7.46657300
      0.25000000	     -3.67953949	     -6.37363001	      5.92311252	     -0.02187062	      0.97492014	      0.90007788	     10.52999230	      5.47612572	    -10.65204676	    -21.34778152	     11.45437426	      1.50683277	      4.60000552	     -4.49787447	     10.40569419	    -10.40230278	     11.30509531	     -4.15843488	      2.34134215	      6.16423754	     -7.46683614
      0.26000000	     -3.69388221	     -6.45822075	      5.95217369	     -0.02126633	      0.97499651	      0.90093567	     10.29341522	      5.65699398	    -10.67530115	    -20.95107239	     11.42395988	      1.47978433	      4.62732426	     -4.63857574	     10.43412091	    -10.45353839	     11.34063111	     -4.09917077	      2.37720213	      6.23675566	     -7.46459228
      0.27000000	     -3.70833354	     -6.53359317	      5.97216179	     -0.02066993	      0.97505558	      0.90182592	     10.07461928	      5.82930956	    -10.68582985	    -20.58458217	     11.39650392	      1.44786002	      4.65057703	     -4.77192386	     10.45071653	    -10.50091336	     11.37758862	     -4.04221256	      2.40612194	      6.29805973	     -7.46388737
      0.28000000	     -3.72621997	     -6.60066815	      5.98134245	     -0.02009330	      0.97509624	      0.90274967	      9.87686091	      5.99292486	    -10.68421631	    -20.24697691	     11.37325038	      1.41226856	      4.67560030	     -4.89851125	     10.45401363	    -10.54653729	     11.41554439	     -3.98714807	      2.42841447	      6.34890015	     -7.46380640
      0.29000000	     -3.74562332	     -6.65883574	      5.98108025	     -0.01951879	      0.97512010	      0.90371554	      9.69609202	      6.14783227	    -10.67443882	    -19.93762573	     11.35407610	      1.37274958	      4.70205490	     -5.01829029	     10.44417983	    -10.59623252	     11.45596733	     -3.93085510	      2.44713383	      6.38664642	     -7.46478992
